<svg xmlns="http://www.w3.org/2000/svg" aria-describedby="logo-title" viewBox="0
0 117 37"><title id="logo-title">Daft logo</title><g fill="none" fill-rule="evenodd"><g fill="#3A64AE"><path d="M52.835 30.033l.164-.258v1.606h3.66V6.79h-3.915v10.798c-1.032-.95-2.091-1.42-3.183-1.41-1.252 0-2.19.416-2.814 1.245-.626.83-.939 2.073-.939 3.73v5.283c0 1.86.292 3.206.88 4.035.584.83 1.542 1.245 2.873 1.245 1.45 0 2.542-.563 3.274-1.683m-.383-10.386c.195.531.291 1.625.291 3.285v2.03c0 1.659-.1 2.753-.299 3.284-.199.53-.608.796-1.226.796-.538 0-.921-.222-1.15-.666-.23-.446-.344-1.194-.344-2.245V21.78c0-1.134.104-1.904.314-2.314.209-.409.607-.612 1.195-.612.618 0 1.025.265 1.22.794M66.043 30.366l.165-.197v1.212H70v-10.64c0-1.555-.428-2.706-1.284-3.45-.86-.741-2.175-1.113-3.95-1.113-1.84 0-3.179.334-4.02 1.002-.84.667-1.25 1.723-1.231 3.17v.44h3.917v-.443c-.03-.61.074-1.067.314-1.373.241-.304.616-.456 1.127-.456.404 0 .708.14.91.425.2.283.303.703.303 1.26v1.823H64.9c-2.111 0-3.596.362-4.458 1.085-.86.724-1.29 1.972-1.29 3.745v.91c0 1.234.316 2.203.952 2.902.636.697 1.513 1.048 2.635 1.048 1.47 0 2.572-.45 3.304-1.35zm.043-3.97c0 1-.14 1.752-.418 2.257-.28.505-.698.756-1.257.756-.42 0-.747-.131-.986-.398-.239-.265-.359-.632-.359-1.1v-.918c0-.979.191-1.667.569-2.065.378-.399 1.026-.596 1.945-.596h.506v2.064zM78.333 19.152v12.229h-3.915V19.152H72.36v-2.64h2.057v-2.415c0-1.46.333-2.541.996-3.244.666-.706 1.69-1.057 3.07-1.057.737 0 1.427.041 2.072.121v2.567l-.567-.013c-.602 0-1.028.12-1.278.364-.252.243-.378.664-.378 1.262v2.416h2.223v2.64h-2.223zM90.355 31.533a18.31 18.31 0 0 1-2.61.168c-1.237 0-2.168-.368-2.792-1.108-.623-.735-.935-1.838-.935-3.301v-8.154h-2.09v-2.64h2.09V8.102l3.917-3.082v11.478h2.42v2.64h-2.42v8.174c0 .72.074 1.191.224 1.416.151.221.476.333.978.333.44-.016.848-.061 1.218-.134v2.606zM92.888 31.38h3.251v-3.272h-3.25zM99.342 13.05h2.642v-2.545h-2.642v2.545zm.143 18.341h2.355V16.782h-2.355v14.61zM116.382 24.854V23.61c0-4.83-1.033-7.117-5.17-7.117-5.029 0-5.517 3.53-5.517 7.812 0 6.451 2.443 7.376 5.516 7.376 3.045 0 5.027-1.475 5.057-4.715h-2.586c-.085 1.475-.919 2.777-2.528 2.777-1.84 0-2.93-.81-2.93-4.89h8.158zm-8.159-1.794c.028-4.05 1.265-4.774 2.759-4.774 1.723 0 2.902.522 2.902 4.774h-5.66z"/></g><path d="M29.977 28.091c-2.795 4.794-7.968 8.012-13.887 8.012C7.203 36.103 0 28.85 0 19.9 0 10.953 7.203 3.699 16.09 3.699h.092L1.347 18.874h8.441v9.217h20.189z" fill="#3A64AE"/><path fill="#FEFEFE" d="M35.838 16.39L21.749 1.545 7.234 16.39h5.019v9.217h18.563v-9.217z"/><path fill="#F5851F" d="M35.838 16.39L21.749 1.545 7.234 16.39h5.019v9.217h18.563v-9.217z"/><path d="M21.738 3.086c1.184 1.25 9.111 9.603 11.604 12.23H29.75v9.218H13.32v-9.218H9.781c2.583-2.64 10.754-10.998 11.957-12.23zM20.989.791L4.687 17.465h6.5v9.217h20.697v-9.217h6.45L21.76 0l-.772.79z" fill="#3A64AE"/></g></svg>
